<?xml version="1.0" standalone="no"?>
<!DOCTYPE svg PUBLIC "-//W3C//DTD SVG 20010904//EN"
 "http://www.w3.org/TR/2001/REC-SVG-20010904/DTD/svg10.dtd">
<svg version="1.0" xmlns="http://www.w3.org/2000/svg"
 width="16.000000pt" height="16.000000pt" viewBox="0 0 16.000000 16.000000"
 preserveAspectRatio="xMidYMid meet">
<metadata>
Created by potrace 1.11, written by Peter Selinger 2001-2013
</metadata>
<g transform="translate(0.000000,16.000000) scale(0.005714,-0.005714)"
fill="#000000" stroke="none">
<path d="M95 2786 c-41 -18 -83 -69 -90 -109 -3 -18 -4 -604 -3 -1304 3 -1266
3 -1272 24 -1299 11 -15 33 -37 48 -48 27 -21 30 -21 1326 -21 1296 0 1299 0
1326 21 15 11 37 33 48 48 21 27 21 30 21 1326 0 1296 0 1299 -21 1326 -11 15
-33 37 -48 48 -27 21 -32 21 -1314 23 -1055 2 -1293 0 -1317 -11z m1752 -142
c66 -41 107 -119 99 -188 -8 -73 -41 -117 -205 -281 l-151 -149 32 -33 32 -33
146 144 c155 154 203 186 274 186 57 0 85 -11 130 -51 75 -65 95 -152 55 -239
-13 -29 -69 -94 -165 -190 l-144 -146 40 -39 40 -39 158 156 c180 179 217 202
303 196 141 -10 228 -154 174 -286 -20 -47 -533 -565 -589 -594 -52 -27 -132
-27 -188 0 -29 15 -162 141 -425 404 -396 397 -422 428 -423 507 0 89 9 101
294 390 298 301 330 325 418 318 30 -3 66 -15 95 -33z m-822 -910 c76 -19 135
-54 204 -118 113 -106 166 -227 159 -364 -3 -72 -3 -72 23 -72 38 0 255 -38
316 -55 99 -29 153 -100 153 -202 -1 -95 -52 -178 -139 -222 -71 -36 -103 -35
-361 13 -134 25 -248 46 -255 46 -7 0 -24 -10 -39 -21 l-27 -22 104 -106 c138
-140 168 -201 146 -299 -23 -108 -137 -202 -243 -202 -98 0 -119 17 -532 432
-232 234 -387 397 -397 420 -21 45 -22 127 -1 176 21 50 428 459 515 517 131
88 247 113 374 79z"/>
<path d="M1685 2589 c-31 -17 -535 -521 -551 -551 -18 -35 -18 -91 0 -126 8
-15 187 -199 398 -409 409 -407 409 -407 485 -388 18 4 124 102 301 278 285
285 304 309 288 373 -10 38 -69 92 -110 99 -22 5 -45 1 -67 -10 -19 -9 -116
-99 -216 -198 l-183 -182 -95 95 -95 95 170 170 c105 105 175 184 184 207 21
49 11 89 -32 132 -43 44 -87 54 -133 31 -19 -9 -111 -93 -204 -186 l-170 -169
-88 88 -87 87 181 180 c99 99 187 192 195 207 44 83 -22 189 -118 188 -18 0
-42 -5 -53 -11z"/>
<path d="M829 1661 c-99 -32 -155 -76 -386 -305 -162 -159 -236 -240 -244
-264 -26 -79 -28 -76 379 -485 207 -208 392 -387 410 -398 129 -81 304 81 234
217 -11 21 -77 95 -146 164 l-126 124 28 29 c56 61 102 87 151 87 25 0 141
-18 256 -40 116 -22 227 -40 248 -40 84 0 161 71 173 160 5 37 2 51 -18 80
-32 48 -73 65 -210 89 -149 27 -232 27 -281 2 -20 -10 -37 -17 -37 -15 0 3 9
22 19 42 73 143 39 311 -89 439 -85 85 -154 117 -255 120 -44 1 -92 -2 -106
-6z m112 -324 c44 -29 79 -83 79 -119 0 -53 -32 -101 -144 -216 l-110 -113
-103 103 c-57 56 -103 108 -103 114 0 18 205 211 247 233 50 27 93 26 134 -2z"/>
<path d="M814 1251 c-21 -16 -65 -55 -97 -88 l-57 -59 53 -52 53 -53 85 88
c47 49 88 99 91 111 8 29 -35 82 -66 82 -13 0 -41 -13 -62 -29z"/>
</g>
</svg>
